<svg width="30" height="30" viewBox="0 0 30 30" fill="none" xmlns="http://www.w3.org/2000/svg">
<circle cx="15" cy="15" r="15" fill="#FF7910"/>
<g clip-path="url(#clip0_1_283)">
<path d="M15.0005 8.21423C12.3778 8.21423 10.2505 10.3416 10.2505 12.9642C10.2505 16.5267 15.0005 21.7857 15.0005 21.7857C15.0005 21.7857 19.7505 16.5267 19.7505 12.9642C19.7505 10.3416 17.6232 8.21423 15.0005 8.21423ZM15.0005 14.6607C14.0641 14.6607 13.3041 13.9007 13.3041 12.9642C13.3041 12.0278 14.0641 11.2678 15.0005 11.2678C15.9369 11.2678 16.6969 12.0278 16.6969 12.9642C16.6969 13.9007 15.9369 14.6607 15.0005 14.6607Z" fill="white"/>
</g>
<defs>
<clipPath id="clip0_1_283">
<rect width="16.2857" height="16.2857" fill="white" transform="translate(6.85767 6.85693)"/>
</clipPath>
</defs>
</svg>
