<svg width="20" height="20" viewBox="0 0 20 20" fill="none" xmlns="http://www.w3.org/2000/svg">
<path d="M9.99996 1.04163C14.9475 1.04163 18.9583 5.05241 18.9583 9.99996C18.9583 14.9475 14.9475 18.9583 9.99996 18.9583C5.05241 18.9583 1.04163 14.9475 1.04163 9.99996C1.04163 5.05241 5.05241 1.04163 9.99996 1.04163ZM9.99996 2.29163C5.74276 2.29163 2.29163 5.74276 2.29163 9.99996C2.29163 14.2572 5.74276 17.7083 9.99996 17.7083C14.2572 17.7083 17.7083 14.2572 17.7083 9.99996C17.7083 5.74276 14.2572 2.29163 9.99996 2.29163ZM9.99996 4.04211C10.3164 4.04211 10.5779 4.27724 10.6193 4.5823L10.625 4.66711V9.73246L13.769 12.723C13.9963 12.9393 14.0251 13.2859 13.8497 13.535L13.791 13.6066C13.5747 13.834 13.2281 13.8628 12.979 13.6874L12.9074 13.6286L9.56916 10.4528C9.46996 10.3584 9.40519 10.2348 9.38325 10.1014L9.37496 9.99996V4.66711C9.37496 4.32194 9.65478 4.04211 9.99996 4.04211Z" fill="#C1C1C1"/>
</svg>
