<svg width="18" height="18" viewBox="0 0 18 18" fill="none" xmlns="http://www.w3.org/2000/svg">
<path d="M9.05562 0.8775C9.39625 0.925625 9.42687 1.025 9.50687 1.13625C9.77999 1.51688 9.47812 2.12313 8.95374 2.12625C8.93874 2.12625 8.92437 2.12688 8.90937 2.12688C6.28874 2.16813 3.81687 3.79813 2.74187 6.13813C1.60874 8.60375 2.11249 11.7325 3.98937 13.7244C6.25437 16.1288 10.3169 16.5881 13.0812 14.5463C14.9337 13.1775 16.0212 10.8344 15.8637 8.53625C15.6844 5.9075 13.9019 3.47938 11.3575 2.54313C11.3575 2.54313 10.9075 2.26937 10.9519 1.88437C10.9987 1.47687 11.4619 1.24313 11.9 1.41C12.0362 1.4625 12.1712 1.51813 12.3044 1.57688C15.0069 2.77875 16.9437 5.56563 17.1175 8.53C17.2994 11.6388 15.535 14.7756 12.7437 16.2275C10.3556 17.47 7.34812 17.4219 4.99374 16.0863C2.90999 14.9044 1.39187 12.7613 0.983743 10.3963C0.541243 7.82563 1.42187 5.06063 3.28249 3.2225C4.78249 1.74063 6.86187 0.881875 8.99625 0.875C9.01624 0.875625 9.03624 0.876875 9.05562 0.8775ZM14.0031 9.63313H8.99812C8.88437 9.63 8.8525 9.61938 8.79187 9.59813C8.54687 9.5125 8.38187 9.31938 8.37312 9.0075V4.00313C8.37625 3.88875 8.38687 3.85688 8.40812 3.79625C8.49374 3.55125 8.68687 3.38625 8.99812 3.3775C9.01 3.3775 9.02187 3.37813 9.03374 3.37813C9.14749 3.38813 9.17812 3.40063 9.23812 3.425C9.46624 3.52 9.61562 3.70313 9.62374 4.00313V8.3825H14.0031C14.0069 8.38313 14.7406 8.58938 14.6131 9.14688C14.5506 9.42125 14.2887 9.62563 14.0031 9.63313Z" fill="#00AF40"/>
</svg>
