<svg width="27" height="27" viewBox="0 0 27 27" fill="none" xmlns="http://www.w3.org/2000/svg">
<circle cx="13.5" cy="13.5" r="13.5" transform="rotate(-180 13.5 13.5)" fill="#3D3D3D"/>
<path d="M15.9196 10.125C15.8778 10.1665 15.8447 10.2158 15.822 10.2701C15.7994 10.3244 15.7877 10.3827 15.7877 10.4415C15.7877 10.5003 15.7994 10.5586 15.822 10.6129C15.8447 10.6672 15.8778 10.7166 15.9196 10.758L17.9701 12.8085H7.477C7.35878 12.8085 7.2454 12.8554 7.16181 12.939C7.07821 13.0226 7.03125 13.136 7.03125 13.2542C7.03125 13.3724 7.07821 13.4858 7.16181 13.5694C7.2454 13.653 7.35878 13.7 7.477 13.7H17.9612L15.9196 15.7371C15.8366 15.8206 15.79 15.9336 15.79 16.0513C15.79 16.1691 15.8366 16.2821 15.9196 16.3656C16.0031 16.4486 16.1161 16.4952 16.2339 16.4952C16.3516 16.4952 16.4646 16.4486 16.5481 16.3656L19.3831 13.5306C19.4213 13.494 19.4516 13.45 19.4724 13.4014C19.4931 13.3527 19.5038 13.3004 19.5038 13.2475C19.5038 13.1946 19.4931 13.1423 19.4724 13.0937C19.4516 13.045 19.4213 13.0011 19.3831 12.9645L16.5526 10.125C16.5111 10.0832 16.4618 10.0501 16.4075 10.0274C16.3532 10.0048 16.2949 9.99316 16.2361 9.99316C16.1772 9.99316 16.119 10.0048 16.0647 10.0274C16.0103 10.0501 15.961 10.0832 15.9196 10.125Z" fill="white"/>
</svg>
