<svg width="20" height="21" viewBox="0 0 20 21" fill="none" xmlns="http://www.w3.org/2000/svg">
<path d="M18.5683 18.1812L14.5058 14.1187H14.462C15.7142 12.6423 16.347 10.7389 16.228 8.80663C16.109 6.87439 15.2475 5.063 13.8237 3.75137C12.3998 2.43973 10.5239 1.72947 8.58845 1.76916C6.65296 1.80884 4.80778 2.59539 3.43889 3.96428C2.07 5.33317 1.28345 7.17835 1.24377 9.11384C1.20408 11.0493 1.91434 12.9252 3.22597 14.3491C4.5376 15.7729 6.349 16.6344 8.28124 16.7534C10.2135 16.8724 12.1169 16.2396 13.5933 14.9874C13.5933 14.9874 13.5933 15.0187 13.5933 15.0312L17.6558 19.0937C17.7139 19.1523 17.783 19.1988 17.8592 19.2305C17.9353 19.2622 18.017 19.2786 18.0995 19.2786C18.1821 19.2786 18.2637 19.2622 18.3399 19.2305C18.4161 19.1988 18.4852 19.1523 18.5433 19.0937C18.6074 19.037 18.6591 18.9677 18.6953 18.8901C18.7315 18.8126 18.7514 18.7284 18.7537 18.6429C18.7561 18.5573 18.7408 18.4722 18.7089 18.3928C18.677 18.3134 18.6292 18.2413 18.5683 18.1812ZM8.74954 15.4999C7.51341 15.4999 6.30504 15.1334 5.27723 14.4466C4.24942 13.7599 3.44835 12.7837 2.9753 11.6417C2.50225 10.4997 2.37848 9.243 2.61964 8.03062C2.8608 6.81824 3.45605 5.7046 4.33013 4.83052C5.20421 3.95644 6.31785 3.36119 7.53023 3.12003C8.74261 2.87887 9.99928 3.00264 11.1413 3.47569C12.2834 3.94874 13.2595 4.74982 13.9462 5.77762C14.633 6.80543 14.9995 8.0138 14.9995 9.24994C14.9995 10.0707 14.8379 10.8834 14.5238 11.6417C14.2097 12.4 13.7493 13.089 13.169 13.6694C12.5886 14.2497 11.8996 14.7101 11.1413 15.0242C10.383 15.3383 9.57031 15.4999 8.74954 15.4999Z" fill="#4C4C4C"/>
</svg>
