<svg width="27" height="27" viewBox="0 0 27 27" fill="none" xmlns="http://www.w3.org/2000/svg">
<circle cx="13.5" cy="13.5" r="13.5" transform="rotate(-180 13.5 13.5)" fill="#E0E0E0"/>
<path d="M15.9195 10.125C15.8777 10.1664 15.8445 10.2157 15.8219 10.27C15.7993 10.3243 15.7876 10.3826 15.7876 10.4414C15.7876 10.5003 15.7993 10.5586 15.8219 10.6129C15.8445 10.6672 15.8777 10.7165 15.9195 10.7579L17.9699 12.8084H7.47688C7.35866 12.8084 7.24528 12.8554 7.16169 12.939C7.07809 13.0226 7.03113 13.1359 7.03113 13.2542C7.03113 13.3724 7.07809 13.4858 7.16169 13.5694C7.24528 13.6529 7.35866 13.6999 7.47688 13.6999H17.961L15.9195 15.737C15.8365 15.8205 15.7899 15.9335 15.7899 16.0513C15.7899 16.169 15.8365 16.282 15.9195 16.3655C16.003 16.4485 16.116 16.4951 16.2337 16.4951C16.3515 16.4951 16.4645 16.4485 16.548 16.3655L19.383 13.5305C19.4211 13.4939 19.4515 13.45 19.4723 13.4013C19.493 13.3527 19.5037 13.3003 19.5037 13.2475C19.5037 13.1946 19.493 13.1423 19.4723 13.0936C19.4515 13.045 19.4211 13.001 19.383 12.9644L16.5524 10.125C16.511 10.0832 16.4617 10.05 16.4074 10.0274C16.3531 10.0048 16.2948 9.9931 16.236 9.9931C16.1771 9.9931 16.1189 10.0048 16.0645 10.0274C16.0102 10.05 15.9609 10.0832 15.9195 10.125Z" fill="black"/>
</svg>
