<svg width="30" height="30" viewBox="0 0 30 30" fill="none" xmlns="http://www.w3.org/2000/svg">
<circle cx="15" cy="15" r="15" fill="#3098FE"/>
<path d="M12.9475 15.1947C12.9475 14.3463 13.2869 13.5222 13.8928 12.9162C14.4018 12.4072 15.0563 12.0921 15.735 11.9951V10.3227L12.3416 8.67444V19.5334L15.735 21.1816V18.3699C15.0563 18.273 14.4018 17.9821 13.8928 17.4489C13.2626 16.8671 12.9475 16.043 12.9475 15.1947Z" fill="white"/>
<path d="M20.4615 8.6016C20.3403 8.52889 20.1949 8.52889 20.0737 8.57736L16.5591 10.3226V11.995C17.262 12.092 17.9407 12.4071 18.4497 12.9161C19.0557 13.5221 19.395 14.3219 19.395 15.1945C19.395 15.9217 19.1526 16.6004 18.7163 17.1579L20.7281 19.1697L20.6554 8.94095C20.6554 8.79551 20.5827 8.67432 20.4615 8.6016Z" fill="white"/>
<path d="M11.5175 8.69861L8.07557 10.6135C7.95438 10.6862 7.85742 10.8316 7.85742 10.9771V20.9149C7.85742 21.0604 7.93014 21.2058 8.05133 21.2785C8.17253 21.3512 8.3422 21.3512 8.46339 21.2785L11.4932 19.5818V8.69861H11.5175Z" fill="white"/>
<path d="M16.5591 18.37V21.1817L20.1464 19.7274L18.1346 17.7156C17.6498 18.1034 17.1166 18.3215 16.5591 18.37Z" fill="white"/>
<path d="M16.1714 12.7947C15.5412 12.7947 14.9352 13.0371 14.4747 13.4976C14.0141 13.9581 13.7717 14.5641 13.7717 15.1943C13.7717 15.8245 14.0141 16.4305 14.4747 16.891C15.42 17.8363 16.947 17.8363 17.8681 16.891C18.3286 16.4305 18.571 15.8245 18.571 15.1943C18.571 14.5641 18.3286 13.9581 17.8681 13.4976C17.4075 13.0371 16.8016 12.7947 16.1714 12.7947Z" fill="white"/>
<path d="M20.7281 19.2182C20.7281 19.3879 20.6312 19.5333 20.4858 19.606L20.1707 19.7272L21.528 21.0846L22.1098 20.5029L20.7524 19.1455L20.7281 19.2182Z" fill="white"/>
</svg>
