<svg width="30" height="30" viewBox="0 0 30 30" fill="none" xmlns="http://www.w3.org/2000/svg">
<circle cx="15" cy="15" r="15" fill="#00C7A4"/>
<path d="M22.3766 12.515L20.8776 11.016C20.3545 11.5388 19.507 11.5388 18.9839 11.016C18.4613 10.4932 18.4613 9.64541 18.9839 9.12259L17.4852 7.62363C17.2673 7.40573 16.9142 7.40573 16.6961 7.62363L14.7502 9.56944L15.2236 10.0431L14.5661 10.7005L14.0928 10.2269L7.62366 16.696C7.40605 16.9138 7.40605 17.2671 7.62366 17.4848L9.12267 18.984C9.64549 18.4612 10.4933 18.4612 11.0161 18.984C11.5389 19.5069 11.5389 20.3546 11.0161 20.8774L12.5148 22.3761C12.7329 22.594 13.086 22.594 13.3039 22.3761L19.773 15.9071L19.2996 15.434L19.9571 14.7766L20.4305 15.2496L22.3766 13.3038C22.5942 13.0859 22.5942 12.7329 22.3766 12.515ZM15.0395 11.1736L15.6969 10.5164L16.6436 11.4628L15.9862 12.1203L15.0395 11.1736ZM16.4595 12.5939L17.117 11.9365L18.0636 12.8832L17.4062 13.5406L16.4595 12.5939ZM18.8263 14.9604L17.8796 14.0137L18.537 13.3563L19.4837 14.303L18.8263 14.9604Z" fill="white"/>
</svg>
