<svg width="31" height="30" viewBox="0 0 31 30" fill="none" xmlns="http://www.w3.org/2000/svg">
<circle cx="15.5" cy="15" r="15" fill="#FD4C93"/>
<path d="M15.5001 8.38367C14.1916 8.38367 12.9124 8.77169 11.8244 9.49868C10.7364 10.2257 9.88841 11.2589 9.38765 12.4679C8.8869 13.6768 8.75588 15.0071 9.01116 16.2905C9.26644 17.5739 9.89656 18.7527 10.8218 19.678C11.7471 20.6033 12.926 21.2334 14.2094 21.4887C15.4928 21.744 16.823 21.6129 18.032 21.1122C19.2409 20.6114 20.2742 19.7634 21.0012 18.6754C21.7281 17.5874 22.1162 16.3083 22.1162 14.9997C22.1143 13.2456 21.4167 11.5639 20.1763 10.3235C18.936 9.08316 17.2542 8.38552 15.5001 8.38367ZM19.0626 15.5087H15.5001C15.3651 15.5087 15.2357 15.455 15.1402 15.3596C15.0448 15.2642 14.9912 15.1347 14.9912 14.9997V11.4372C14.9912 11.3023 15.0448 11.1728 15.1402 11.0774C15.2357 10.9819 15.3651 10.9283 15.5001 10.9283C15.6351 10.9283 15.7645 10.9819 15.86 11.0774C15.9554 11.1728 16.009 11.3023 16.009 11.4372V14.4908H19.0626C19.1976 14.4908 19.327 14.5444 19.4225 14.6399C19.5179 14.7353 19.5715 14.8648 19.5715 14.9997C19.5715 15.1347 19.5179 15.2642 19.4225 15.3596C19.327 15.455 19.1976 15.5087 19.0626 15.5087Z" fill="white"/>
</svg>
