<svg width="20" height="20" viewBox="0 0 20 20" fill="none" xmlns="http://www.w3.org/2000/svg">
<g clip-path="url(#clip0_1_233)">
<path d="M15.5462 10.3027C15.4245 10.4249 15.2264 10.4249 15.1043 10.3028L14.6885 9.88673C14.5664 9.76501 14.5664 9.56688 14.6884 9.44501C14.8104 9.32298 15.0082 9.32298 15.1303 9.44501L15.5462 9.86079C15.6684 9.98282 15.6684 10.1808 15.5462 10.3027ZM14.2985 9.05501C14.1767 9.17673 13.9785 9.17673 13.8565 9.05501L13.4406 8.63907C13.3189 8.51704 13.3189 8.31907 13.4406 8.19688C13.5628 8.07517 13.7607 8.07517 13.8824 8.19704L14.2985 8.61313C14.4204 8.73485 14.4204 8.93298 14.2985 9.05501ZM13.0504 7.80704C12.9284 7.92892 12.7306 7.92907 12.6085 7.80704L12.1926 7.3911C12.0709 7.26923 12.0709 7.0711 12.1928 6.94938C12.3146 6.82735 12.5126 6.82735 12.6345 6.94938L13.0506 7.36501C13.1728 7.48704 13.1726 7.68501 13.0504 7.80704ZM11.8026 6.55923C11.6809 6.68126 11.4828 6.68126 11.3609 6.55938L10.9448 6.14345C10.8228 6.02126 10.8231 5.82345 10.9449 5.70157C11.0668 5.57954 11.2646 5.57938 11.3868 5.70157L11.8026 6.1172C11.9246 6.23938 11.9246 6.4372 11.8026 6.55923ZM10.5551 5.31142C10.4331 5.43329 10.2349 5.43329 10.1129 5.31126L9.69713 4.89548C9.5751 4.77345 9.5751 4.57532 9.69698 4.45345C9.81901 4.33157 10.017 4.33157 10.1392 4.4536L10.5549 4.86954C10.6768 4.99126 10.677 5.18938 10.5551 5.31142Z" fill="#282828"/>
<path d="M7.17679 20C6.93476 20 6.70772 19.9061 6.53757 19.7359L4.74226 17.9406C4.63319 17.8317 4.62007 17.6595 4.71101 17.535C5.18272 16.8906 5.11538 16.0133 4.55085 15.4491C4.24772 15.1456 3.84444 14.9786 3.41569 14.9786C3.07069 14.9786 2.74194 15.0859 2.46476 15.2887C2.34069 15.3795 2.16819 15.3666 2.05929 15.2575L0.263818 13.4622C0.0935059 13.292 -0.000244141 13.065 -0.000244141 12.823C-8.78906e-05 12.5813 0.0936621 12.3541 0.263975 12.1839L12.1838 0.264063C12.354 0.0939063 12.5812 0 12.823 0C13.0649 0 13.2918 0.09375 13.4619 0.26375L15.2574 2.05938C15.3663 2.16828 15.3796 2.34063 15.2885 2.465C14.8169 3.10938 14.8843 3.98672 15.4487 4.55141C15.7516 4.85437 16.1549 5.02141 16.5837 5.02141C16.9287 5.02141 17.2574 4.91422 17.5346 4.71156C17.6591 4.62047 17.831 4.63375 17.9402 4.74266L19.7358 6.53766C20.0882 6.89047 20.088 7.46391 19.7357 7.81625L7.81585 19.7359C7.64569 19.9061 7.41866 20 7.17679 20ZM5.3621 17.6767L6.97944 19.2941C7.08397 19.3988 7.2696 19.3984 7.37397 19.2941L19.294 7.37422C19.4027 7.26547 19.4027 7.08828 19.294 6.97937L17.6762 5.36234C17.344 5.54875 16.9712 5.64625 16.5838 5.64625C15.9882 5.64625 15.428 5.41437 15.0069 4.99312C14.2876 4.27375 14.1496 3.18859 14.6376 2.32328L13.0202 0.705781C12.9157 0.601563 12.7302 0.601562 12.6257 0.706094L0.70585 12.6258C0.653662 12.6781 0.624912 12.7481 0.624756 12.8231C0.624756 12.898 0.653506 12.9681 0.705693 13.0203L2.32335 14.638C2.65554 14.4516 3.02835 14.3539 3.41569 14.3539C4.01147 14.3539 4.57147 14.5859 4.99272 15.0073C5.71226 15.7261 5.85038 16.8112 5.3621 17.6767Z" fill="#282828"/>
</g>
<defs>
<clipPath id="clip0_1_233">
<rect width="20" height="20" fill="white"/>
</clipPath>
</defs>
</svg>
