<svg width="20" height="20" viewBox="0 0 20 20" fill="none" xmlns="http://www.w3.org/2000/svg">
<path d="M14.2374 17.2503C12.1896 17.2503 10.523 15.5844 10.523 13.536C10.523 13.4226 10.5283 13.3098 10.5382 13.1983H8.48221C8.49178 13.3098 8.49704 13.4226 8.49704 13.536C8.49704 15.5844 6.83047 17.2503 4.78271 17.2503C2.73495 17.2503 1.06836 15.5844 1.06836 13.536C1.06836 13.0058 1.17984 12.5019 1.38098 12.0455L3.65891 4.80482C3.95898 3.73775 4.85755 3.06836 6.00178 3.06836C7.36597 3.06836 8.47693 4.1826 8.47693 5.55237V6.44501H10.5026V5.55237C10.5026 4.18258 11.6198 3.06836 12.9929 3.06836C13.8971 3.06836 14.9918 3.52704 15.3539 4.81473L17.8534 12.6496L17.8455 12.6523C17.9141 12.9359 17.9517 13.2313 17.9517 13.536C17.9517 15.5844 16.2851 17.2503 14.2374 17.2503ZM14.2374 10.497C12.5616 10.497 11.1984 11.8609 11.1984 13.536C11.1984 15.2111 12.5616 16.575 14.2374 16.575C15.9132 16.575 17.2764 15.2111 17.2764 13.536C17.2764 11.8609 15.9132 10.497 14.2374 10.497ZM1.7945 12.9794C1.7612 13.1601 1.74374 13.3461 1.74374 13.536C1.74374 15.2112 3.10726 16.575 4.78273 16.575C6.45818 16.575 7.82171 15.2111 7.82171 13.536C7.82171 13.4219 7.81513 13.3091 7.80358 13.1983L7.8016 13.1825C7.62582 11.6729 6.33948 10.497 4.78271 10.497C3.55305 10.497 2.49058 11.2317 2.01311 12.2856L1.7945 12.9794ZM8.47693 12.523H10.5026V7.12034H8.47693V12.523ZM12.9929 3.74369C11.9924 3.74369 11.178 4.55553 11.178 5.55239V11.4315C11.8487 10.4598 12.9698 9.82169 14.2374 9.82169C15.0816 9.82169 15.8604 10.1046 16.485 10.5808L14.7063 5.00861C14.3772 3.83404 13.3114 3.74369 12.9929 3.74369ZM4.78271 9.82171C6.02522 9.82171 7.12693 10.435 7.8016 11.3735V5.55239C7.8016 4.55553 6.9937 3.74369 6.0018 3.74369C5.59788 3.74369 4.62477 3.86603 4.30588 4.99774L2.55359 10.5669C3.17484 10.0994 3.94746 9.82171 4.78271 9.82171Z" fill="#343434"/>
<path d="M14.2371 17.3186C12.1513 17.3186 10.4544 15.6217 10.4544 13.536C10.4544 13.4476 10.4576 13.3573 10.464 13.2666H8.5557C8.56192 13.358 8.56508 13.4483 8.56508 13.536C8.56508 15.6217 6.8682 17.3186 4.78243 17.3186C2.69666 17.3186 0.999756 15.6217 0.999756 13.536C0.999756 13.0093 1.10636 12.4998 1.31666 12.0214L3.59347 4.78429C3.90272 3.68446 4.82566 3 6.00152 3C7.404 3 8.545 4.14496 8.545 5.55233V6.37665H10.434V5.55233C10.434 4.14496 11.5818 3 12.9926 3C13.9214 3 15.0464 3.47161 15.4191 4.79501L17.9183 12.6288C17.9224 12.6419 17.9225 12.6552 17.9191 12.6675C17.9859 12.954 18.0198 13.246 18.0198 13.536C18.0198 15.6217 16.3229 17.3186 14.2371 17.3186ZM8.48193 13.13H10.5379C10.5571 13.13 10.5754 13.138 10.5883 13.1522C10.6013 13.1663 10.6077 13.1853 10.606 13.2043C10.5961 13.3159 10.5911 13.4275 10.5911 13.536C10.5911 15.5464 12.2267 17.182 14.2371 17.182C16.2475 17.182 17.8831 15.5464 17.8831 13.536C17.8831 13.2463 17.848 12.9544 17.7788 12.6683C17.7765 12.6585 17.7764 12.6486 17.7782 12.6393L15.2885 4.83546C15.2883 4.83471 15.2881 4.83396 15.2879 4.83318C14.9362 3.58234 13.8716 3.13665 12.9926 3.13665C11.6571 3.13665 10.5706 4.22032 10.5706 5.55233V6.44498C10.5706 6.48271 10.5401 6.5133 10.5023 6.5133H8.47665C8.43891 6.5133 8.40833 6.48271 8.40833 6.44498V5.55233C8.40833 4.22032 7.32864 3.13665 6.0015 3.13665C4.88949 3.13665 4.01696 3.78292 3.7244 4.82328L1.44586 12.066C1.44511 12.0684 1.44422 12.0708 1.4432 12.0731C1.23962 12.535 1.13638 13.0272 1.13638 13.536C1.13638 15.5464 2.77197 17.182 4.78241 17.182C6.79282 17.182 8.42841 15.5464 8.42841 13.536C8.42841 13.4286 8.42352 13.3169 8.41382 13.2042C8.41218 13.1851 8.41862 13.1662 8.43156 13.1521C8.44454 13.138 8.4628 13.13 8.48193 13.13ZM14.2371 16.6433C12.5237 16.6433 11.1298 15.2494 11.1298 13.536C11.1298 11.8226 12.5237 10.4287 14.2371 10.4287C15.9505 10.4287 17.3444 11.8226 17.3444 13.536C17.3444 15.2494 15.9505 16.6433 14.2371 16.6433ZM14.2371 10.5653C12.5991 10.5653 11.2664 11.898 11.2664 13.536C11.2664 15.174 12.5991 16.5066 14.2371 16.5066C15.8751 16.5066 17.2078 15.174 17.2078 13.536C17.2078 11.898 15.8751 10.5653 14.2371 10.5653ZM4.78243 16.6433C3.06904 16.6433 1.67511 15.2494 1.67511 13.536C1.67511 13.3454 1.69258 13.1539 1.72701 12.967C1.72751 12.9642 1.7282 12.9615 1.72904 12.9589L1.94767 12.2651C1.94849 12.2625 1.94947 12.2599 1.95061 12.2574C2.45393 11.1465 3.56548 10.4287 4.78245 10.4287C6.35992 10.4287 7.68692 11.6092 7.86921 13.1746L7.87112 13.1899C7.88356 13.3091 7.88978 13.425 7.88978 13.536C7.88975 15.2494 6.49582 16.6433 4.78243 16.6433ZM1.86065 12.9959C1.82822 13.1734 1.81178 13.3551 1.81178 13.536C1.81178 15.174 3.14442 16.5067 4.78245 16.5067C6.42048 16.5067 7.75311 15.174 7.75311 13.536C7.75311 13.4298 7.74714 13.3185 7.73534 13.2054L7.73352 13.191C7.5592 11.6938 6.29053 10.5653 4.78243 10.5653C3.62034 10.5653 2.55876 11.25 2.07674 12.3101L1.86065 12.9959ZM10.5023 12.5913H8.47665C8.43891 12.5913 8.40833 12.5607 8.40833 12.523V7.12031C8.40833 7.08257 8.43891 7.05198 8.47665 7.05198H10.5023C10.54 7.05198 10.5706 7.08257 10.5706 7.12031V12.523C10.5706 12.5607 10.5401 12.5913 10.5023 12.5913ZM8.54497 12.4547H10.434V7.18863H8.54497V12.4547ZM11.1777 11.4998C11.1709 11.4998 11.164 11.4988 11.1573 11.4967C11.1288 11.4878 11.1093 11.4614 11.1093 11.4315V5.55235C11.1093 4.51737 11.9542 3.67533 12.9926 3.67533C13.3234 3.67533 14.4293 3.77005 14.7715 4.98901L16.5498 10.56C16.5588 10.5884 16.5484 10.6194 16.524 10.6366C16.4997 10.6537 16.467 10.6532 16.4433 10.6351C15.8039 10.1476 15.041 9.89 14.2371 9.89C13.0395 9.89 11.9168 10.4808 11.2339 11.4703C11.2209 11.4891 11.1997 11.4998 11.1777 11.4998ZM12.9926 3.81198C12.0295 3.81198 11.246 4.59271 11.246 5.55235V11.2225C11.962 10.2988 13.065 9.75335 14.2371 9.75335C15.0013 9.75335 15.7298 9.97772 16.3567 10.4043L14.6409 5.02936C14.6407 5.02859 14.6404 5.02781 14.6402 5.02702C14.3243 3.89959 13.2993 3.81198 12.9926 3.81198ZM7.80134 11.4418C7.77975 11.4418 7.75894 11.4315 7.74584 11.4133C7.0601 10.4594 5.95229 9.88997 4.78243 9.88997C3.98681 9.88997 3.23019 10.1429 2.59438 10.6215C2.57065 10.6393 2.5381 10.6398 2.51385 10.6227C2.48959 10.6055 2.47921 10.5747 2.48811 10.5464L4.2404 4.97719C4.5714 3.80237 5.58227 3.67531 6.0015 3.67531C7.03159 3.67531 7.86962 4.51735 7.86962 5.55233V11.3735C7.86962 11.4031 7.85049 11.4294 7.82225 11.4385C7.81537 11.4407 7.80831 11.4418 7.80134 11.4418ZM4.78243 9.75335C5.92805 9.75335 7.01626 10.2796 7.733 11.1708V5.55235C7.733 4.59271 6.95627 3.81198 6.00152 3.81198C5.6134 3.81198 4.67764 3.92931 4.37137 5.01624L2.6796 10.3932C3.30293 9.97392 4.0257 9.75335 4.78243 9.75335Z" fill="#343434"/>
</svg>
